<svg width="150" height="36" viewBox="0 0 1107 269" fill="none" xmlns="http://www.w3.org/2000/svg">
<mask id="path-1-outside-1_83_14647" maskUnits="userSpaceOnUse" x="0" y="0" width="1107" height="269" fill="black">
<rect fill="white" width="1107" height="269"/>
<path d="M168.308 168.27H145.962V179.432H134.8L134.789 190.595H123.633L123.624 201.757H112.468L112.464 224.081H101.304L101.299 246.405H90.1392L90.1297 257.568H12V134.784H23.1622L23.167 101.297H34.328L34.3289 90.1351H23.1649V12H514.404V34.3243H525.585V23.1622H536.747L536.758 12H681.877V23.1622H704.207V34.3243H704.223V23.1622H715.385L715.396 12H860.515V23.1622H882.845V34.3243H882.861L882.869 23.1622H894.026L894.034 12H1083.81V123.622H1094.98V224.081H1083.82L1083.8 235.243H1072.65L1072.64 246.405H1050.32V257.568H905.191V246.405H894.026V235.243H871.696V224.081H860.531V212.919H860.512L860.507 224.081H704.223V212.919H693.058V201.757H693.042V212.919H681.88L681.869 224.081H614.888V246.405H503.255V235.243H480.925V224.081H469.76V212.919H458.596V201.757H447.431V190.595H425.084V201.757H413.922L413.911 212.919H391.59V224.081H369.26V235.243H224.133V224.081H212.968V212.919H190.638V201.757H179.473V190.595H168.312L168.308 168.27Z"/>
</mask>
<path d="M134.8 157.108V151.527H129.219V157.108H134.8ZM134.8 168.27V173.851H140.381V168.27H134.8ZM123.638 168.27V162.689H118.06L118.057 168.268L123.638 168.27ZM123.633 179.432V185.014H129.211L129.214 179.435L123.633 179.432ZM112.473 179.432V173.851H106.895L106.892 179.43L112.473 179.432ZM112.468 190.595V196.176H118.046L118.049 190.597L112.468 190.595ZM101.308 190.595V185.014H95.7281L95.7271 190.594L101.308 190.595ZM101.304 212.919V218.5H106.884L106.885 212.92L101.304 212.919ZM90.1433 212.919V207.338H84.5633L84.5622 212.918L90.1433 212.919ZM90.1392 235.243V240.824H95.7193L95.7203 235.244L90.1392 235.243ZM78.9784 235.243V229.662H73.4001L73.3973 235.241L78.9784 235.243ZM78.973 246.405V251.986H84.5513L84.554 246.408L78.973 246.405ZM23.1622 145.946V140.365H17.5811V145.946H23.1622ZM34.3243 145.946V151.527H39.9048L39.9054 145.947L34.3243 145.946ZM34.328 112.459V106.878H28.7475L28.7469 112.459L34.328 112.459ZM45.4892 112.459V118.041H51.0698L51.0703 112.46L45.4892 112.459ZM391.593 56.6486H386.011L397.174 56.6506L391.593 56.6486ZM391.604 23.1622V17.5811H386.025L386.023 23.1602L391.604 23.1622ZM514.406 67.8108L508.825 67.8115L519.987 67.8139L514.406 67.8108ZM514.419 45.4865V39.9054H508.841L508.837 45.4834L514.419 45.4865ZM536.747 45.4865V51.0676H542.328V45.4865H536.747ZM536.747 34.3243V28.7432H531.166V34.3243H536.747ZM547.909 34.3243V39.9054H553.488L553.49 34.327L547.909 34.3243ZM547.915 23.1622V17.5811H542.336L542.334 23.1594L547.915 23.1622ZM670.715 23.1622H676.296V17.5811H670.715V23.1622ZM670.715 34.3243H665.134V39.9054H670.715V34.3243ZM693.044 34.3243H698.626V28.7432H693.044V34.3243ZM693.044 45.4865H687.463V51.0676H693.044V45.4865ZM715.385 45.4865V51.0676H720.966V45.4865H715.385ZM715.385 34.3243V28.7432H709.804V34.3243H715.385ZM726.547 34.3243V39.9054H732.126L732.128 34.3271L726.547 34.3243ZM726.553 23.1622V17.5811H720.974L720.972 23.1594L726.553 23.1622ZM849.353 23.1622H854.934V17.5811H849.353V23.1622ZM849.353 34.3243H843.772V39.9054H849.353V34.3243ZM871.683 34.3243H877.264V28.7432H871.683V34.3243ZM871.683 45.4865H866.102V51.0676H871.683V45.4865ZM882.845 45.4865L888.426 45.4851L888.425 39.9054H882.845V45.4865ZM882.848 56.6486L877.267 56.65L888.429 56.6555L882.848 56.6486ZM882.861 45.4865V39.9054H877.287L877.28 45.4797L882.861 45.4865ZM894.01 45.4865V51.0676H899.583L899.591 45.4947L894.01 45.4865ZM894.026 34.3243V28.7432H888.453L888.445 34.3161L894.026 34.3243ZM905.186 34.3243V39.9054H910.764L910.767 34.327L905.186 34.3243ZM905.191 23.1622V17.5811H899.613L899.61 23.1594L905.191 23.1622ZM1072.65 112.459V118.041H1078.23V112.459H1072.65ZM1061.49 112.459V106.878H1055.91L1055.91 112.459L1061.49 112.459ZM1083.82 212.919V218.5H1089.4V212.919H1083.82ZM1072.65 212.919V207.338H1067.08L1067.07 212.916L1072.65 212.919ZM1072.65 224.081V229.662H1078.23L1078.23 224.084L1072.65 224.081ZM1061.49 224.081V218.5H1055.91L1055.91 224.078L1061.49 224.081ZM1061.48 235.243V240.824H1067.06L1067.06 235.246L1061.48 235.243ZM1039.16 235.243V229.662H1033.57V235.243H1039.16ZM1039.16 246.405V251.986H1044.74V246.405H1039.16ZM916.353 246.405H910.772V251.986H916.353V246.405ZM916.353 235.243H921.934V229.662H916.353V235.243ZM905.191 235.243L899.61 235.245L899.611 240.824H905.191V235.243ZM905.188 224.081L910.769 224.08L910.768 218.5H905.188V224.081ZM882.859 224.081H877.277V229.662H882.859V224.081ZM882.859 212.919H888.44V207.338H882.859V212.919ZM871.696 212.919L866.115 212.92L866.117 218.5H871.696V212.919ZM871.694 201.757L877.275 201.755L877.273 196.176H871.694V201.757ZM849.356 201.757V196.176H843.777L843.775 201.754L849.356 201.757ZM849.35 212.919V218.5H854.929L854.931 212.922L849.35 212.919ZM715.385 212.919H709.804V218.5H715.385V212.919ZM715.385 201.757H720.966V196.176H715.385V201.757ZM704.223 201.757L698.642 201.758L698.643 207.338H704.223V201.757ZM704.22 190.595L709.801 190.593L709.8 185.014H704.22V190.595ZM681.88 190.595V185.014H676.299V190.595H681.88ZM681.88 201.757V207.338H687.461V201.757H681.88ZM670.717 201.757V196.176H665.139L665.136 201.754L670.717 201.757ZM670.712 212.919V218.5H676.29L676.293 212.922L670.712 212.919ZM514.417 235.243H508.836V240.824H514.417V235.243ZM514.417 224.081H519.998V218.5H514.417V224.081ZM492.087 224.081H486.506V229.662H492.087V224.081ZM492.087 212.919H497.669V207.338H492.087V212.919ZM480.925 212.919L475.344 212.92L475.346 218.5H480.925V212.919ZM480.923 201.757L486.504 201.755L486.502 196.176H480.923V201.757ZM469.76 201.757L464.179 201.758L464.181 207.338H469.76V201.757ZM469.758 190.595L475.339 190.593L475.337 185.014H469.758V190.595ZM458.596 190.595L453.014 190.596L453.016 196.176H458.596V190.595ZM458.593 179.432L464.174 179.431L464.173 173.851H458.593V179.432ZM447.431 179.432L441.85 179.434L441.851 185.014H447.431V179.432ZM447.428 168.27L453.009 168.269L453.008 162.689H447.428V168.27ZM436.252 168.27V162.689H430.671V168.27H436.252ZM436.252 179.432V185.014H441.833V179.432H436.252ZM413.922 179.432V173.851H408.341V179.432H413.922ZM413.922 190.595V196.176H419.503V190.595H413.922ZM402.76 190.595V185.014H397.182L397.179 190.592L402.76 190.595ZM402.755 201.757V207.338H408.333L408.336 201.759L402.755 201.757ZM380.428 201.757V196.176H374.847V201.757H380.428ZM380.428 212.919V218.5H386.009V212.919H380.428ZM358.098 212.919V207.338H352.517V212.919H358.098ZM358.098 224.081V229.662H363.679V224.081H358.098ZM235.295 224.081H229.714V229.662H235.295V224.081ZM235.295 212.919H240.876V207.338H235.295V212.919ZM224.133 212.919L218.552 212.92L218.553 218.5H224.133V212.919ZM224.13 201.757L229.711 201.755L229.71 196.176H224.13V201.757ZM201.8 201.757H196.219V207.338H201.8V201.757ZM201.8 190.595H207.381V185.014H201.8V190.595ZM190.638 190.595L185.057 190.596L185.058 196.176H190.638V190.595ZM190.635 179.432L196.217 179.431L196.215 173.851H190.635V179.432ZM179.467 145.946L185.048 145.945L173.886 145.947L179.467 145.946ZM179.469 157.108V162.689H185.051L185.05 157.107L179.469 157.108ZM23.1622 246.405H17.5811V251.986H23.1622V246.405ZM45.4919 78.973L51.073 78.9734L51.0735 73.3919H45.4919V78.973ZM34.3298 78.973L28.7487 78.9732L28.749 84.554H34.3298V78.973ZM34.327 23.1622V17.5811H28.7457L28.746 23.1624L34.327 23.1622ZM391.593 23.1622H397.174V17.5811H391.593V23.1622ZM503.241 23.1622H508.823V17.5811H503.241V23.1622ZM503.241 45.4865H497.66V51.0676H503.241V45.4865ZM514.404 45.4865L519.985 45.4858L519.984 39.9054H514.404V45.4865ZM1072.65 23.1622H1078.23V17.5811H1072.65V23.1622ZM1061.49 134.784L1055.91 134.783L1055.91 140.365H1061.49V134.784ZM1083.82 134.784H1089.4V129.203H1083.82V134.784ZM603.725 212.919V207.338H598.144V212.919H603.725ZM603.725 235.243V240.824H609.306V235.243H603.725ZM179.473 179.432L173.892 179.433L173.893 185.014H179.473V179.432ZM129.219 157.108V168.27H140.381V157.108H129.219ZM134.8 162.689H123.638V173.851H134.8V162.689ZM118.057 168.268L118.051 179.43L129.214 179.435L129.219 168.273L118.057 168.268ZM123.633 173.851H112.473V185.014H123.633V173.851ZM106.892 179.43L106.887 190.592L118.049 190.597L118.054 179.435L106.892 179.43ZM112.468 185.014H101.308V196.176H112.468V185.014ZM95.7271 190.594L95.723 212.918L106.885 212.92L106.889 190.596L95.7271 190.594ZM101.304 207.338H90.1433V218.5H101.304V207.338ZM84.5622 212.918L84.5581 235.242L95.7203 235.244L95.7244 212.92L84.5622 212.918ZM90.1392 229.662H78.9784V240.824H90.1392V229.662ZM73.3973 235.241L73.3919 246.403L84.554 246.408L84.5595 235.246L73.3973 235.241ZM23.1622 151.527H34.3243V140.365H23.1622V151.527ZM39.9054 145.947L39.909 112.46L28.7469 112.459L28.7432 145.945L39.9054 145.947ZM34.328 118.041H45.4892V106.878H34.328V118.041ZM397.174 56.6506L397.185 23.1641L386.023 23.1602L386.011 56.6467L397.174 56.6506ZM519.987 67.8139L520 45.4895L508.837 45.4834L508.825 67.8078L519.987 67.8139ZM542.328 45.4865V34.3243H531.166V45.4865H542.328ZM536.747 39.9054H547.909V28.7432H536.747V39.9054ZM553.49 34.327L553.496 23.1649L542.334 23.1594L542.328 34.3216L553.49 34.327ZM665.134 23.1622V34.3243H676.296V23.1622H665.134ZM687.463 34.3243V45.4865H698.626V34.3243H687.463ZM720.966 45.4865V34.3243H709.804V45.4865H720.966ZM715.385 39.9054H726.547V28.7432H715.385V39.9054ZM732.128 34.3271L732.134 23.1649L720.972 23.1594L720.966 34.3216L732.128 34.3271ZM843.772 23.1622V34.3243H854.934V23.1622H843.772ZM866.102 34.3243V45.4865H877.264V34.3243H866.102ZM877.264 45.4879L877.267 56.65L888.429 56.6473L888.426 45.4851L877.264 45.4879ZM888.429 56.6555L888.442 45.4933L877.28 45.4797L877.267 56.6418L888.429 56.6555ZM899.591 45.4947L899.607 34.3325L888.445 34.3161L888.429 45.4783L899.591 45.4947ZM894.026 39.9054H905.186V28.7432H894.026V39.9054ZM910.767 34.327L910.772 23.1649L899.61 23.1594L899.605 34.3216L910.767 34.327ZM1072.65 106.878H1061.49V118.041H1072.65V106.878ZM1083.82 207.338H1072.65V218.5H1083.82V207.338ZM1067.07 212.916L1067.07 224.078L1078.23 224.084L1078.23 212.922L1067.07 212.916ZM1072.65 218.5H1061.49V229.662H1072.65V218.5ZM1055.91 224.078L1055.9 235.241L1067.06 235.246L1067.07 224.084L1055.91 224.078ZM1033.57 235.243V246.405H1044.74V235.243H1033.57ZM921.934 246.405V235.243H910.772V246.405H921.934ZM910.772 235.242L910.769 224.08L899.607 224.082L899.61 235.245L910.772 235.242ZM888.44 224.081V212.919H877.277V224.081H888.44ZM877.277 212.918L877.275 201.755L866.113 201.758L866.115 212.92L877.277 212.918ZM843.775 201.754L843.769 212.916L854.931 212.922L854.937 201.759L843.775 201.754ZM720.966 212.919V201.757H709.804V212.919H720.966ZM709.804 201.755L709.801 190.593L698.639 190.596L698.642 201.758L709.804 201.755ZM676.299 190.595V201.757H687.461V190.595H676.299ZM681.88 196.176H670.717V207.338H681.88V196.176ZM665.136 201.754L665.131 212.916L676.293 212.922L676.299 201.759L665.136 201.754ZM519.998 235.243V224.081H508.836V235.243H519.998ZM497.669 224.081V212.919H486.506V224.081H497.669ZM486.506 212.918L486.504 201.755L475.341 201.758L475.344 212.92L486.506 212.918ZM475.341 201.755L475.339 190.593L464.177 190.596L464.179 201.758L475.341 201.755ZM464.177 190.593L464.174 179.431L453.012 179.434L453.014 190.596L464.177 190.593ZM453.012 179.431L453.009 168.269L441.847 168.272L441.85 179.434L453.012 179.431ZM430.671 168.27V179.432H441.833V168.27H430.671ZM408.341 179.432V190.595H419.503V179.432H408.341ZM413.922 185.014H402.76V196.176H413.922V185.014ZM397.179 190.592L397.174 201.754L408.336 201.759L408.341 190.597L397.179 190.592ZM374.847 201.757V212.919H386.009V201.757H374.847ZM352.517 212.919V224.081H363.679V212.919H352.517ZM240.876 224.081V212.919H229.714V224.081H240.876ZM229.714 212.918L229.711 201.755L218.549 201.758L218.552 212.92L229.714 212.918ZM207.381 201.757V190.595H196.219V201.757H207.381ZM196.219 190.593L196.217 179.431L185.054 179.434L185.057 190.596L196.219 190.593ZM173.886 145.947L173.888 157.109L185.05 157.107L185.048 145.945L173.886 145.947ZM854.948 190.596L854.95 201.758L866.113 201.755L866.11 190.593L854.948 190.596ZM179.469 151.527H134.8V162.689H179.469V151.527ZM78.973 240.824H23.1622V251.986H78.973V240.824ZM28.7432 246.405V145.946H17.5811V246.405H28.7432ZM51.0703 112.46L51.073 78.9734L39.9109 78.9725L39.9081 112.459L51.0703 112.46ZM45.4919 73.3919H34.3298V84.554H45.4919V73.3919ZM39.9109 78.9727L39.9081 23.1619L28.746 23.1624L28.7487 78.9732L39.9109 78.9727ZM34.327 28.7432H391.593V17.5811H34.327V28.7432ZM386.011 23.1622V56.6486H397.174V23.1622H386.011ZM391.604 28.7432H503.241V17.5811H391.604V28.7432ZM497.66 23.1622V45.4865H508.823V23.1622H497.66ZM503.241 51.0676H514.404V39.9054H503.241V51.0676ZM508.823 45.4872L508.825 67.8115L519.987 67.8101L519.985 45.4858L508.823 45.4872ZM514.419 51.0676H536.747V39.9054H514.419V51.0676ZM547.915 28.7432H670.715V17.5811H547.915V28.7432ZM670.715 39.9054H693.044V28.7432H670.715V39.9054ZM693.044 51.0676H715.385V39.9054H693.044V51.0676ZM726.553 28.7432H849.353V17.5811H726.553V28.7432ZM849.353 39.9054H871.683V28.7432H849.353V39.9054ZM871.683 51.0676H882.845V39.9054H871.683V51.0676ZM882.861 51.0676H894.01V39.9054H882.861V51.0676ZM905.191 28.7432H1072.65V17.5811H905.191V28.7432ZM1067.07 23.1622V112.459H1078.23V23.1622H1067.07ZM1055.91 112.459L1055.91 134.783L1067.07 134.784L1067.07 112.46L1055.91 112.459ZM1061.49 140.365H1083.82V129.203H1061.49V140.365ZM1078.23 134.784V212.919H1089.4V134.784H1078.23ZM1061.48 229.662H1039.16V240.824H1061.48V229.662ZM1039.16 240.824H916.353V251.986H1039.16V240.824ZM916.353 229.662H905.191V240.824H916.353V229.662ZM905.188 218.5H882.859V229.662H905.188V218.5ZM882.859 207.338H871.696V218.5H882.859V207.338ZM871.694 196.176H860.531V207.338H871.694V196.176ZM860.531 196.176H849.356V207.338H860.531V196.176ZM849.35 207.338H715.385V218.5H849.35V207.338ZM715.385 196.176H704.223V207.338H715.385V196.176ZM704.22 185.014H681.88V196.176H704.22V185.014ZM670.712 207.338H603.725V218.5H670.712V207.338ZM598.144 212.919V235.243H609.306V212.919H598.144ZM603.725 229.662H514.417V240.824H603.725V229.662ZM514.417 218.5H492.087V229.662H514.417V218.5ZM492.087 207.338H480.925V218.5H492.087V207.338ZM480.923 196.176H469.76V207.338H480.923V196.176ZM469.758 185.014H458.596V196.176H469.758V185.014ZM458.593 173.851H447.431V185.014H458.593V173.851ZM447.428 162.689H436.252V173.851H447.428V162.689ZM436.252 173.851H413.922V185.014H436.252V173.851ZM402.755 196.176H380.428V207.338H402.755V196.176ZM380.428 207.338H358.098V218.5H380.428V207.338ZM358.098 218.5H235.295V229.662H358.098V218.5ZM235.295 207.338H224.133V218.5H235.295V207.338ZM224.13 196.176H201.8V207.338H224.13V196.176ZM201.8 185.014H190.638V196.176H201.8V185.014ZM190.635 173.851H179.473V185.014H190.635V173.851ZM185.054 179.431L185.048 145.945L173.886 145.947L173.892 179.433L185.054 179.431ZM145.962 168.27V157.108H134.8V168.27H145.962ZM168.308 168.27L179.471 168.268L179.469 157.108H168.308V168.27ZM145.962 179.432V190.595H157.124V179.432H145.962ZM112.468 201.757V190.595H101.308L101.306 201.755L112.468 201.757ZM123.624 201.757V212.919H134.778L134.786 201.765L123.624 201.757ZM34.328 101.297V112.459H45.4892L45.4901 101.298L34.328 101.297ZM23.167 101.297V90.1351H12.0065L12.0048 101.296L23.167 101.297ZM34.3289 90.1351L45.491 90.136L45.4919 78.973H34.3289V90.1351ZM525.585 23.1622V12H514.423V23.1622H525.585ZM525.585 34.3243V45.4865H536.747V34.3243H525.585ZM681.877 23.1622H670.715V34.3243H681.877V23.1622ZM681.877 12H693.039V0.837838H681.877V12ZM704.207 34.3243H693.044V45.4865H704.207V34.3243ZM704.207 23.1622H715.369V12H704.207V23.1622ZM704.223 34.3243V45.4865H715.385V34.3243H704.223ZM704.223 23.1622V12H693.061V23.1622H704.223ZM860.515 23.1622H849.353V34.3243H860.515V23.1622ZM860.515 12H871.677V0.837838H860.515V12ZM882.845 34.3243H871.683V45.4865H882.845V34.3243ZM882.845 23.1622H894.007V12H882.845V23.1622ZM1050.32 257.568V268.73H1061.48V257.568H1050.32ZM1050.32 246.405V235.243H1039.16V246.405H1050.32ZM905.191 246.405H916.353V235.243H905.191V246.405ZM905.191 257.568H894.029V268.73H905.191V257.568ZM894.026 235.243H905.188V224.081H894.026V235.243ZM894.026 246.405H882.864V257.568H894.026V246.405ZM871.696 224.081H882.859V212.919H871.696V224.081ZM871.696 235.243H860.534V246.405H871.696V235.243ZM860.531 212.919H871.694V201.757H860.531V212.919ZM860.531 224.081H849.369V235.243H860.531V224.081ZM704.223 212.919H715.385V201.757H704.223V212.919ZM704.223 224.081H693.061V235.243H704.223V224.081ZM693.058 201.757H704.22V190.595H693.058V201.757ZM693.058 212.919H681.896V224.081H693.058V212.919ZM693.042 201.757V190.595H681.88V201.757H693.042ZM693.042 212.919V224.081H704.204V212.919H693.042ZM503.255 235.243H514.417V224.081H503.255V235.243ZM503.255 246.405H492.093V257.568H503.255V246.405ZM480.925 224.081H492.087V212.919H480.925V224.081ZM480.925 235.243H469.763V246.405H480.925V235.243ZM469.76 212.919H480.923V201.757H469.76V212.919ZM469.76 224.081H458.598V235.243H469.76V224.081ZM458.596 201.757H469.758V190.595H458.596V201.757ZM458.596 212.919H447.433V224.081H458.596V212.919ZM447.431 190.595H458.593V179.432H447.431V190.595ZM447.431 201.757H436.268V212.919H447.431V201.757ZM425.084 201.757V212.919H436.247V201.757H425.084ZM425.084 190.595V179.432H413.922V190.595H425.084ZM391.59 224.081V235.243H402.752V224.081H391.59ZM391.59 212.919V201.757H380.428V212.919H391.59ZM369.26 235.243V246.405H380.422V235.243H369.26ZM369.26 224.081V212.919H358.098V224.081H369.26ZM224.133 224.081H235.295V212.919H224.133V224.081ZM224.133 235.243H212.971V246.405H224.133V235.243ZM212.968 212.919H224.13V201.757H212.968V212.919ZM212.968 224.081H201.806V235.243H212.968V224.081ZM190.638 201.757H201.8V190.595H190.638V201.757ZM190.638 212.919H179.476V224.081H190.638V212.919ZM179.473 190.595H190.635V179.432H179.473V190.595ZM179.473 201.757H168.311V212.919H179.473V201.757ZM134.8 179.432V168.27H123.649L123.638 179.422L134.8 179.432ZM134.789 190.595V201.757H145.941L145.951 190.605L134.789 190.595ZM123.633 190.595V179.432H112.479L112.47 190.586L123.633 190.595ZM112.464 224.081V235.243H123.624L123.626 224.083L112.464 224.081ZM101.304 224.081V212.919H90.1443L90.1419 224.079L101.304 224.081ZM101.299 246.405V257.568H112.459L112.462 246.408L101.299 246.405ZM90.1392 246.405V235.243H78.9866L78.9771 246.396L90.1392 246.405ZM90.1297 257.568V268.73H101.282L101.292 257.577L90.1297 257.568ZM12 257.568H0.837838V268.73H12V257.568ZM12 134.784V123.622H0.837838V134.784H12ZM23.1622 134.784V145.946H34.3227L34.3243 134.785L23.1622 134.784ZM23.1649 90.1351H12.0027V101.297H23.1649V90.1351ZM23.1649 12V0.837838H12.0027V12H23.1649ZM514.404 12H525.566V0.837838H514.404V12ZM514.404 34.3243H503.241V45.4865H514.404V34.3243ZM536.747 23.1622V34.3243H547.898L547.909 23.1731L536.747 23.1622ZM536.758 12V0.837838H525.607L525.596 11.9891L536.758 12ZM715.385 23.1622V34.3243H726.536L726.547 23.1731L715.385 23.1622ZM715.396 12V0.837838H704.245L704.234 11.9891L715.396 12ZM882.861 34.3243V45.4865H894.015L894.023 34.3325L882.861 34.3243ZM882.869 23.1622V12H871.715L871.707 23.154L882.869 23.1622ZM894.026 23.1622V34.3243H905.18L905.188 23.1703L894.026 23.1622ZM894.034 12V0.837838H882.88L882.872 11.9919L894.034 12ZM1083.81 12H1094.97V0.837838H1083.81V12ZM1083.81 123.622H1072.65V134.784H1083.81V123.622ZM1094.98 123.622H1106.14V112.459H1094.98V123.622ZM1094.98 224.081V235.243H1106.14V224.081H1094.98ZM1083.82 224.081V212.919H1072.66L1072.65 224.07L1083.82 224.081ZM1083.8 235.243V246.405H1094.96L1094.97 235.254L1083.8 235.243ZM1072.65 235.243V224.081H1061.49L1061.49 235.235L1072.65 235.243ZM1072.64 246.405V257.568H1083.79L1083.8 246.414L1072.64 246.405ZM860.512 212.919V201.757H849.356L849.35 212.913L860.512 212.919ZM860.507 224.081V235.243H871.664L871.669 224.087L860.507 224.081ZM681.88 212.919V201.757H670.728L670.717 212.908L681.88 212.919ZM681.869 224.081V235.243H693.02L693.031 224.092L681.869 224.081ZM614.888 224.081V212.919H603.725V224.081H614.888ZM614.888 246.405V257.568H626.05V246.405H614.888ZM413.922 201.757V190.595H402.771L402.76 201.746L413.922 201.757ZM413.911 212.919V224.081H425.063L425.074 212.93L413.911 212.919ZM168.312 190.595L157.15 190.596L157.152 201.757H168.312V190.595ZM145.962 179.432H168.308V157.108H145.962V179.432ZM157.124 179.432V168.27H134.8V179.432H157.124ZM112.468 212.919H123.624V190.595H112.468V212.919ZM34.328 90.1351H23.167V112.459H34.328V90.1351ZM23.1667 90.1342L23.1658 101.296L45.4901 101.298L45.491 90.136L23.1667 90.1342ZM514.423 23.1622V34.3243H536.747V23.1622H514.423ZM693.039 23.1622V12H670.715V23.1622H693.039ZM715.369 34.3243V23.1622H693.044V34.3243H715.369ZM704.223 23.1622H704.207V45.4865H704.223V23.1622ZM693.061 23.1622V34.3243H715.385V23.1622H693.061ZM871.677 23.1622V12H849.353V23.1622H871.677ZM894.007 34.3243V23.1622H871.683V34.3243H894.007ZM1061.48 257.568V246.405H1039.16V257.568H1061.48ZM894.029 246.405V257.568H916.353V246.405H894.029ZM882.864 235.243V246.405H905.188V235.243H882.864ZM860.534 224.081V235.243H882.859V224.081H860.534ZM849.369 212.919V224.081H871.694V212.919H849.369ZM693.061 212.919V224.081H715.385V212.919H693.061ZM681.896 201.757V212.919H704.22V201.757H681.896ZM693.042 212.919H693.058V190.595H693.042V212.919ZM704.204 212.919V201.757H681.88V212.919H704.204ZM492.093 235.243V246.405H514.417V235.243H492.093ZM469.763 224.081V235.243H492.087V224.081H469.763ZM458.598 212.919V224.081H480.923V212.919H458.598ZM447.433 201.757V212.919H469.758V201.757H447.433ZM436.268 190.595V201.757H458.593V190.595H436.268ZM436.247 201.757V190.595H413.922V201.757H436.247ZM402.752 224.081V212.919H380.428V224.081H402.752ZM380.422 235.243V224.081H358.098V235.243H380.422ZM212.971 224.081V235.243H235.295V224.081H212.971ZM201.806 212.919V224.081H224.13V212.919H201.806ZM179.476 201.757V212.919H201.8V201.757H179.476ZM168.311 190.595V201.757H190.635V190.595H168.311ZM134.8 190.595H145.962V168.27H134.8V190.595ZM145.951 190.605L145.962 179.443L123.638 179.422L123.627 190.584L145.951 190.605ZM123.633 201.757H134.789V179.432H123.633V201.757ZM134.786 201.765L134.795 190.603L112.47 190.586L112.462 201.749L134.786 201.765ZM123.626 224.083L123.63 201.759L101.306 201.755L101.302 224.079L123.626 224.083ZM101.304 235.243H112.464V212.919H101.304V235.243ZM112.462 246.408L112.466 224.083L90.1419 224.079L90.1372 246.403L112.462 246.408ZM90.1392 257.568H101.299V235.243H90.1392V257.568ZM101.292 257.577L101.301 246.415L78.9771 246.396L78.9675 257.558L101.292 257.577ZM12 268.73H90.1297V246.405H12V268.73ZM0.837838 134.784V257.568H23.1622V134.784H0.837838ZM23.1622 123.622H12V145.946H23.1622V123.622ZM12.0048 101.296L12 134.782L34.3243 134.785L34.3292 101.299L12.0048 101.296ZM23.1649 101.297H34.3289V78.973H23.1649V101.297ZM12.0027 12V90.1351H34.327V12H12.0027ZM514.404 0.837838H23.1649V23.1622H514.404V0.837838ZM525.566 34.3243V12H503.241V34.3243H525.566ZM525.585 23.1622H514.404V45.4865H525.585V23.1622ZM536.747 12H525.585V34.3243H536.747V12ZM525.596 11.9891L525.585 23.1512L547.909 23.1731L547.92 12.0109L525.596 11.9891ZM681.877 0.837838H536.758V23.1622H681.877V0.837838ZM704.207 12H681.877V34.3243H704.207V12ZM715.385 12H704.223V34.3243H715.385V12ZM704.234 11.9891L704.223 23.1512L726.547 23.1731L726.558 12.0109L704.234 11.9891ZM860.515 0.837838H715.396V23.1622H860.515V0.837838ZM882.845 12H860.515V34.3243H882.845V12ZM882.861 23.1622H882.845V45.4865H882.861V23.1622ZM871.707 23.154L871.699 34.3161L894.023 34.3325L894.032 23.1703L871.707 23.154ZM894.026 12H882.869V34.3243H894.026V12ZM882.872 11.9919L882.864 23.154L905.188 23.1703L905.196 12.0081L882.872 11.9919ZM1083.81 0.837838H894.034V23.1622H1083.81V0.837838ZM1094.97 123.622V12H1072.65V123.622H1094.97ZM1094.98 112.459H1083.81V134.784H1094.98V112.459ZM1106.14 224.081V123.622H1083.82V224.081H1106.14ZM1083.82 235.243H1094.98V212.919H1083.82V235.243ZM1094.97 235.254L1094.98 224.092L1072.65 224.07L1072.64 235.232L1094.97 235.254ZM1072.65 246.405H1083.8V224.081H1072.65V246.405ZM1083.8 246.414L1083.81 235.251L1061.49 235.235L1061.48 246.397L1083.8 246.414ZM1050.32 257.568H1072.64V235.243H1050.32V257.568ZM905.191 268.73H1050.32V246.405H905.191V268.73ZM894.026 257.568H905.191V235.243H894.026V257.568ZM871.696 246.405H894.026V224.081H871.696V246.405ZM860.531 235.243H871.696V212.919H860.531V235.243ZM860.512 224.081H860.531V201.757H860.512V224.081ZM871.669 224.087L871.675 212.924L849.35 212.913L849.345 224.076L871.669 224.087ZM704.223 235.243H860.507V212.919H704.223V235.243ZM693.058 224.081H704.223V201.757H693.058V224.081ZM681.88 224.081H693.042V201.757H681.88V224.081ZM693.031 224.092L693.042 212.93L670.717 212.908L670.707 224.07L693.031 224.092ZM614.888 235.243H681.869V212.919H614.888V235.243ZM626.05 246.405V224.081H603.725V246.405H626.05ZM503.255 257.568H614.888V235.243H503.255V257.568ZM480.925 246.405H503.255V224.081H480.925V246.405ZM469.76 235.243H480.925V212.919H469.76V235.243ZM458.596 224.081H469.76V201.757H458.596V224.081ZM447.431 212.919H458.596V190.595H447.431V212.919ZM425.084 201.757H447.431V179.432H425.084V201.757ZM413.922 212.919H425.084V190.595H413.922V212.919ZM425.074 212.93L425.084 201.768L402.76 201.746L402.749 212.908L425.074 212.93ZM391.59 224.081H413.911V201.757H391.59V224.081ZM369.26 235.243H391.59V212.919H369.26V235.243ZM224.133 246.405H369.26V224.081H224.133V246.405ZM212.968 235.243H224.133V212.919H212.968V235.243ZM190.638 224.081H212.968V201.757H190.638V224.081ZM179.473 212.919H190.638V190.595H179.473V212.919ZM168.312 201.757H179.473V179.432H168.312V201.757ZM157.146 168.272L157.15 190.596L179.474 190.593L179.471 168.268L157.146 168.272Z" fill="black" mask="url(#path-1-outside-1_83_14647)"/>
<path fill-rule="evenodd" clip-rule="evenodd" d="M34.327 23.1621H391.592V56.6486L391.604 23.1621H503.241V45.4864H514.406V67.8108L514.419 45.4864H536.747V34.3243H547.909L547.915 23.1621H670.715V34.3243H693.044V45.4864H715.385V34.3243H726.547L726.553 23.1621H849.353V34.3243H871.683V45.4864H882.848V56.6486L882.861 45.4864H894.021L894.026 34.3243H905.186L905.191 23.1621H1072.65V112.459H1061.49L1061.49 134.784H1083.82V212.919H1072.65L1072.65 224.081H1061.49L1061.48 235.243H1039.16V246.405H916.353V235.243H905.188V224.081H882.859V212.919H871.694V201.757H860.529H849.356L849.35 212.919H715.385V201.757H704.22V190.595H681.88V201.757H670.717L670.712 212.919H603.725V235.243H514.417V224.081H492.087V212.919H480.923V201.757H469.758V190.595H458.593V179.432H447.428V168.27H436.252V179.432H413.922V190.595H402.76L402.755 201.757H380.428V212.919H358.098V224.081H235.295V212.919H224.13V201.757H201.8V190.595H190.635V179.432H179.472L179.467 145.946L179.46 157.108H134.8V168.27H123.638L123.632 179.432H112.473L112.468 190.595H101.308L101.304 212.919H90.1433L90.1392 235.243H78.9784L78.9729 246.405H23.1621V145.946H34.3243L34.3279 112.459H45.4892L45.4919 78.9729H34.327V23.1621ZM56.6513 123.622H45.4892L45.4864 157.108H34.3243V235.243H67.8135L67.8162 224.081H78.9784L78.9811 201.757H90.1433L90.146 179.432H101.308L101.311 168.27H112.473L112.476 157.108H123.638V145.946H168.297V134.784H190.627L190.633 168.27H201.798V179.432H212.96L212.962 190.595H235.292V201.757H246.454L246.457 212.919H346.936V201.757H369.265V190.595H391.595L391.598 179.432H402.76V168.27H425.09V157.108H458.59V168.27H469.752L469.755 179.432H480.917L480.92 190.595H492.082L492.085 201.757H503.247L503.25 212.919H525.579V224.081H592.563V201.757H659.553L659.555 190.595H670.717V179.432H693.047L693.053 168.27H704.218V179.432H715.38L715.382 190.595H726.545L726.547 201.757H838.191L838.193 190.595H849.356V179.432H871.691V190.595H882.853L882.856 201.757H894.018L894.021 212.919H916.35V224.081H927.513L927.515 235.243H1027.99V224.081H1050.32L1050.33 212.919H1061.49L1061.49 201.757H1072.65V145.946H1050.32L1050.33 101.297H1061.49V34.3243H916.35L916.348 45.4864H905.186L905.183 56.6486H894.021L894.018 67.8108H871.685V56.6486H860.523L860.521 45.4864H838.191V34.3243H737.712L737.709 45.4864H726.547V56.6486H704.218L704.212 67.8108H693.047V56.6486H681.885L681.882 45.4864H659.553V34.3243H559.074L559.071 45.4864H547.909V56.6486H525.579L525.577 78.9729H503.244V56.6486H492.082L492.079 34.3243H402.766L402.763 67.8108H391.601L391.598 90.1351H380.43V34.3243H45.4892V67.8108H56.6513L56.654 78.9729H67.8162V90.1351H56.654L56.6513 123.622Z" fill="black"/>
<path d="M56.6512 56.6485V45.4863H224.125V56.6485H212.96V67.8107H201.795V78.9728H190.63V90.135H179.465V67.8107H134.805V78.9728H123.641V101.297H190.63V112.459H179.465V123.621H157.135V134.784H112.476V145.946H101.311V157.108H90.1459V168.27H78.981V190.594H67.8161V212.919H56.6512V224.081H45.4863V168.27H56.6512V134.784H67.8161V101.297H78.981V67.8107H67.8161V56.6485H56.6512Z" fill="black"/>
<path fill-rule="evenodd" clip-rule="evenodd" d="M324.609 45.4863H246.454V56.6485H235.289V67.8107H224.125V78.9728H212.96V101.297H201.795V157.108H212.96V168.27H224.125V179.432H246.454V190.594H257.619V201.757H335.773V190.594H358.103V179.432H380.433V168.27H391.598V157.108H413.928V145.946H469.752V157.108H480.917V168.27H492.082V179.432H503.247V190.594H514.412V201.757H536.741V212.919H581.401V201.757H570.236V190.594H547.906V179.432H536.741V168.27H525.577V145.946H514.412V123.621H503.247V90.135H492.082V67.8107H480.917V45.4863H413.928V56.6485H425.093V67.8107H413.928V78.9728H402.763V101.297H391.598V123.621H380.433V134.784H369.268V145.946H346.938V157.108H324.609V168.27H279.949V157.108H257.619V145.946H246.454V112.459H257.619V90.135H268.784V78.9728H279.949V67.8107H324.609V78.9728H335.773V101.297H346.938V112.459H358.103V90.135H369.268V45.4863H346.938V56.6485H324.609V45.4863ZM425.093 123.621V112.459H436.257V101.297H447.422V90.135H458.587V101.297H469.752V123.621H425.093Z" fill="black"/>
<path fill-rule="evenodd" clip-rule="evenodd" d="M570.236 45.4863H648.39V56.6485H670.72V67.8107H681.885V78.9728H693.05V145.946H681.885V168.27H659.555V179.432H648.39V190.594H581.401V179.432H559.071V168.27H547.906V157.108H536.741V134.784H525.577V90.135H536.741V67.8107H559.071V56.6485H570.236V45.4863ZM614.896 168.27V157.108H626.06V145.946H637.225V134.784H648.39V90.135H637.225V78.9728H626.06V67.8107H603.731V78.9728H592.566V90.135H581.401V101.297H570.236V134.784H581.401V157.108H592.566V168.27H614.896Z" fill="black"/>
<path fill-rule="evenodd" clip-rule="evenodd" d="M827.029 45.4863H748.874V56.6485H737.709V67.8107H715.38V90.135H704.215V157.108H715.38V168.27H726.544V179.432H737.709V190.594H827.029V179.432H838.193V168.27H860.523V145.946H871.688V78.9728H860.523V67.8107H849.358V56.6485H827.029V45.4863ZM760.039 90.135V101.297H748.874V134.784H760.039V157.108H771.204V168.27H793.534V157.108H804.699V145.946H815.864V134.784H827.029V90.135H815.864V78.9728H804.699V67.8107H782.369V78.9728H771.204V90.135H760.039Z" fill="black"/>
<path d="M927.513 45.4863H1005.67V56.6485H1028V45.4863H1050.33V90.135H1039.16V112.459H1028V101.297H1016.83V78.9728H1005.67V67.8107H961.007V78.9728H949.842V90.135H938.677V112.459H927.513V168.27H938.677V179.432H961.007V190.594H1005.67V179.432H1039.16V168.27H1050.33V157.108H1061.49V190.594H1050.33V201.757H1039.16V212.919H1016.83V224.081H938.677V212.919H927.513V201.757H905.183V190.594H894.018V179.432H882.853V101.297H894.018V78.9728H905.183V67.8107H916.348V56.6485H927.513V45.4863Z" fill="black"/>
</svg>
