<svg width="118" height="32" viewBox="0 0 118 32" fill="none" xmlns="http://www.w3.org/2000/svg">
<path d="M105.059 31.3799L58.8945 31.6902L59.7738 27.2882L114.104 26.876L105.059 31.3799Z" fill="#E94F2D"/>
<path d="M0.408532 30.9907C0.124336 30.9907 0 30.7868 0 30.6272C0 30.4676 0.0799303 30.3834 0.324161 30.1396C0.892553 29.6121 2.11371 28.5969 2.27801 27.7414L6.54983 3.56827C6.54983 2.3093 5.28871 1.25425 5.28871 0.722288C5.32867 0.438577 5.53294 0.314453 5.81713 0.314453H18.717C20.8351 0.314453 21.9319 1.08579 21.9319 2.79249L20.1024 13.64C19.9381 14.5754 19.6939 15.1428 19.1255 15.5107L15.9905 17.5411L17.9843 28.2645C18.637 29.6032 19.4496 30.011 19.4496 30.5785C19.4496 30.8622 19.2454 30.9863 18.9612 30.9863H11.1902C10.946 30.9863 10.7817 30.9065 10.7817 30.6627C10.7817 30.0554 11.9629 29.8116 11.9629 29.12C11.9629 28.4285 10.4176 20.3471 10.4176 20.3471L9.11647 21.1983C8.70794 21.4421 8.54808 21.81 8.46371 22.2533L7.56671 27.9807C7.56671 29.0757 8.78787 30.0111 8.78787 30.5829C8.7479 30.8666 8.5836 30.9907 8.29941 30.9907H0.408532ZM11.5987 5.19517L9.76923 15.5152C9.76923 15.7989 9.89357 15.923 10.1378 15.923C10.3421 15.923 14.3697 13.2809 14.3697 13.2809C14.7782 12.9972 14.978 12.7933 15.1023 12.1018C16.3235 5.47889 16.3235 5.3193 16.3235 5.19517C16.3235 4.62775 16.0393 4.38394 15.2666 4.38394H12.4602C12.0916 4.38394 11.6876 4.70755 11.6076 5.19517H11.5987Z" fill="#E94F2D"/>
<path d="M19.9424 30.6267C19.9424 30.4627 20.0224 30.3829 20.2666 30.1391C20.835 29.6116 22.0561 28.5964 22.2204 27.7409L26.4923 3.56778C26.4923 2.30881 25.2311 1.25376 25.2311 0.7218C25.2711 0.438089 25.4754 0.313965 25.7596 0.313965H38.6594C40.7775 0.313965 41.8744 1.0853 41.8744 2.79201C41.8744 3.68747 39.8006 14.6547 39.8006 14.6547C39.6363 15.59 38.8237 16.4013 38.0111 16.8889L28.9346 22.4124C28.526 22.6562 28.3262 23.0197 28.2418 23.4675L27.5091 27.9758C27.5091 29.0708 28.7303 30.0061 28.7303 30.578C28.6903 30.8617 28.526 30.9858 28.2418 30.9858H20.3465C20.0623 30.9858 19.938 30.7819 19.938 30.6223L19.9424 30.6267ZM31.5412 5.19469C31.5412 5.19469 29.5474 16.0821 29.5074 16.4899C29.5074 16.6939 29.5474 16.7737 29.7516 16.7737C29.9959 16.7737 34.1478 14.0917 34.1478 14.0917C34.5963 13.808 34.7606 13.5243 34.8805 12.8327C34.8805 12.8327 36.2659 5.68232 36.2659 5.19469C36.2659 4.62726 35.9817 4.38345 35.2091 4.38345H32.4026C32.0385 4.38345 31.63 4.70706 31.5501 5.19469H31.5412Z" fill="#E94F2D"/>
<path d="M53.8861 5.0706C53.8861 4.62287 53.5619 4.37905 53.2333 4.37905H50.4668C49.8585 4.37905 49.6143 4.66277 49.4899 5.27452L45.8265 26.3179C45.8265 26.7258 46.1107 26.9252 46.5991 26.9252H49.6098C49.9739 26.9252 50.4224 26.6016 50.5468 26.0741C50.5468 26.0741 50.9553 23.6759 51.1152 22.7405C51.1951 22.2928 51.3594 22.0091 51.6836 21.8051C51.6836 21.8051 55.9554 19.4468 56.3639 19.4468C56.6481 19.4468 56.8524 19.6108 56.8524 19.8546C56.8524 19.9743 55.7111 26.7612 55.4269 28.1842C55.1827 29.4831 53.7173 30.9859 51.6036 30.9859H42.7713C41.0617 30.9859 40.0049 30.2145 40.0049 28.8713C40.0049 28.1399 41.226 21.7209 44.5609 2.91174C44.8451 1.24493 46.2705 0.30957 48.1844 0.30957H56.6081C58.522 0.30957 59.4989 1.52864 59.4989 2.70782C59.4989 2.99153 59.0105 5.67349 58.7662 7.09648C58.6464 7.78802 58.482 8.07174 58.1579 8.27565C58.1579 8.27565 53.8461 10.634 53.4376 10.634C53.1534 10.634 52.9891 10.5143 52.9891 10.2661C52.9891 10.0178 53.8861 5.42967 53.8861 5.06617V5.0706Z" fill="#E94F2D"/>
<path d="M60.1343 24.6818C59.9034 24.6818 59.8057 24.5223 59.8057 24.3937C59.8057 24.2651 59.8723 24.2031 60.0677 24.0125C60.5295 23.6002 61.5153 22.8067 61.6485 22.1373L65.1077 3.22618C65.1077 2.24205 64.0864 1.41308 64.0864 1.00082C64.0864 0.779167 64.2862 0.681641 64.5127 0.681641H70.9071C71.1069 0.681641 71.2046 0.779166 71.2046 0.934321C71.2046 1.31556 69.5571 2.29968 69.3928 3.22174L65.9336 22.3235C65.9336 23.1835 66.9239 23.9105 66.9239 24.3582C66.8928 24.5799 66.7596 24.6774 66.5287 24.6774H60.1343V24.6818Z" fill="#E94F2D"/>
<path d="M68.6025 24.6813C68.3716 24.6813 68.2739 24.4907 68.2739 24.3621C68.2739 24.2336 68.3405 24.1095 68.5359 23.9188C68.9977 23.5066 69.9835 22.8062 70.1168 22.1368L73.5759 3.22565C73.5759 2.24153 72.5546 1.51008 72.5546 1.09781C72.5857 0.876165 72.7544 0.685547 72.9809 0.685547H85.1747C85.8319 0.685547 86.0628 0.938227 86.0628 1.31946L85.4056 5.03874C85.3079 5.57957 85.1436 5.80122 84.8772 5.9608C84.8772 5.9608 81.418 7.80493 81.0894 7.80493C80.8274 7.80493 80.7253 7.67637 80.7253 7.36163L81.2848 4.37379C81.2848 4.31173 81.3158 4.2807 81.3158 4.21421C81.3158 3.99256 81.1515 3.864 80.9206 3.864H78.4472C78.1497 3.864 77.8211 4.11668 77.7545 4.49792L76.3069 12.3798L80.592 10.0924C80.592 10.0924 80.854 9.93276 81.0539 9.93276C81.1871 9.93276 81.2848 10.0303 81.2848 10.1854L80.4943 14.1574C80.3966 14.5386 80.1657 14.6982 79.6373 14.9819L75.3211 17.2383L74.6284 21.0862C74.6284 21.3388 74.7616 21.4984 75.0236 21.4984H77.4925C77.79 21.4984 78.1852 21.2458 78.2519 20.8291L78.5494 19.0825C78.5805 18.8298 78.7137 18.6037 78.9757 18.4485C78.9757 18.4485 82.4704 16.6044 82.799 16.6044C83.0299 16.6044 83.1631 16.6975 83.1631 16.8926C83.1631 16.9546 83.0965 17.3048 83.0965 17.3048L81.9775 23.7903C81.8798 24.3621 81.5157 24.6813 80.8229 24.6813H68.5981H68.6025Z" fill="#E94F2D"/>
<path d="M94.0025 17.8147C94.0025 17.6861 93.9714 17.593 93.8026 17.593C93.6028 17.593 93.0433 17.8457 92.7813 17.8457C92.617 17.8457 92.5504 17.6861 92.5504 17.5266L93.0788 14.3791C93.1765 13.9979 93.5407 13.9004 93.5407 13.9004C93.5407 13.9004 98.4519 12.2158 98.8116 12.2158C99.0736 12.2158 99.1757 12.3444 99.1757 12.566L97.3951 22.4826C97.2308 23.4978 96.0096 24.677 94.3 24.677H87.1507C85.7652 24.677 84.9082 24.0741 84.9082 23.0235L88.5672 2.7115C88.7981 1.4082 89.9527 0.676758 91.498 0.676758H98.6828C100.233 0.676758 101.023 1.62985 101.023 2.55191L100.432 5.98305C100.335 6.52387 100.201 6.74552 99.9395 6.90511C99.9395 6.90511 96.4448 8.74923 96.1162 8.74923C95.8853 8.74923 95.752 8.65171 95.752 8.46109C95.752 8.23944 96.4448 4.61325 96.4448 4.3916C96.4448 4.0414 96.1828 3.85078 95.9164 3.85078H93.443C92.9501 3.85078 92.7502 4.07243 92.6525 4.55119L89.6196 21.0153C89.6196 21.3345 89.8195 21.4941 90.2147 21.4941H92.6836C92.9811 21.4941 93.3408 21.2414 93.443 20.8247L94.0025 17.8058V17.8147Z" fill="#E94F2D"/>
<path d="M99.6372 24.6813C99.4063 24.6813 99.3086 24.4907 99.3086 24.3621C99.3086 24.2336 99.3752 24.1095 99.5706 23.9188C100.032 23.5066 101.018 22.8062 101.151 22.1368L104.611 3.22565C104.611 2.24153 103.589 1.51008 103.589 1.09781C103.62 0.876165 103.789 0.685547 104.016 0.685547H116.209C116.867 0.685547 117.097 0.938227 117.097 1.31946L116.44 5.03874C116.343 5.57957 116.178 5.80122 115.912 5.9608C115.912 5.9608 112.453 7.80493 112.124 7.80493C111.862 7.80493 111.76 7.67637 111.76 7.36163L112.319 4.37379C112.319 4.31173 112.351 4.2807 112.351 4.21421C112.351 3.99256 112.186 3.864 111.955 3.864H109.486C109.189 3.864 108.86 4.11668 108.794 4.49792L107.346 12.3798L111.631 10.0924C111.631 10.0924 111.893 9.93276 112.093 9.93276C112.226 9.93276 112.324 10.0303 112.324 10.1854L111.533 14.1574C111.436 14.5386 111.205 14.6982 110.676 14.9819L106.36 17.2383L105.667 21.0862C105.667 21.3388 105.801 21.4984 106.063 21.4984H108.536C108.834 21.4984 109.229 21.2458 109.295 20.8291L109.593 19.0825C109.624 18.8298 109.757 18.6037 110.019 18.4485C110.019 18.4485 113.514 16.6044 113.843 16.6044C114.073 16.6044 114.207 16.6975 114.207 16.8926C114.207 16.9546 114.14 17.3048 114.14 17.3048L113.021 23.7903C112.923 24.3621 112.559 24.6813 111.866 24.6813H99.6416H99.6372Z" fill="#E94F2D"/>
</svg>
